<svg width="30" height="30" viewBox="0 0 30 30" fill="none" xmlns="http://www.w3.org/2000/svg">
<path d="M23.5591 6.45777L16.4532 6.48207L0.94355 21.9341C0.334887 22.5463 -4.00543e-05 23.3594 -4.00543e-05 24.2243C-4.00543e-05 25.0893 0.334887 25.9023 0.94355 26.5146L3.49736 29.0834C4.71468 30.3079 6.83856 30.3015 8.04623 29.0883L23.5591 13.6331V6.45777ZM5.77421 26.7932L3.21557 24.2292L5.78709 21.6668L8.3409 24.234L5.77421 26.7932ZM20.3386 12.2822L10.629 21.9567L8.07521 19.3879L17.7832 9.71662L20.3386 9.70852V12.2822Z" fill="#333333"/>
<path d="M26.7796 -7.62939e-06L4.23649 -7.62939e-06C2.46042 -7.62939e-06 1.01605 1.45287 1.01605 3.2394L1.01605 17.279L4.23649 14.0396L4.23649 3.2394L21.6945 3.2394C21.7364 3.2394 21.7798 3.22321 21.8217 3.22321C21.8748 3.22321 21.928 3.23779 21.9827 3.2394H26.7796L26.7796 25.9153L15.7544 25.9153L12.5339 29.1547L26.7796 29.1547C28.5556 29.1547 30 27.7018 30 25.9153L30 3.2394C30 1.45287 28.5556 -7.62939e-06 26.7796 -7.62939e-06Z" fill="#333333"/>
</svg>
