<svg width="382" height="314" viewBox="0 0 382 314" fill="none" xmlns="http://www.w3.org/2000/svg">
<path d="M374.398 7.17541C358.435 18.4334 340.76 27.044 322.054 32.6755C312.014 21.134 298.671 12.9536 283.83 9.24085C268.988 5.52807 253.364 6.462 239.071 11.9163C224.778 17.3706 212.505 27.0822 203.912 39.7375C195.319 52.3928 190.821 67.3812 191.026 82.6757V99.3424C161.731 100.102 132.702 93.606 106.525 80.4331C80.3487 67.2603 57.8369 47.8195 40.9947 23.8421C40.9947 23.8421 -25.6861 173.843 124.346 240.51C90.0138 263.809 49.1157 275.492 7.6543 273.843C157.686 357.177 341.058 273.843 341.058 82.1757C341.043 77.5332 340.596 72.9022 339.724 68.3423C356.738 51.5671 368.744 30.3874 374.398 7.17541V7.17541Z" stroke="white" stroke-width="14" stroke-linecap="round" stroke-linejoin="round"/>
</svg>
